<svg width="200" height="160" viewBox="0 0 200 160" fill="none" xmlns="http://www.w3.org/2000/svg">
  <!-- Background -->
  <rect width="200" height="160" rx="8" fill="#F5F7FA"/>
  
  <!-- Walking Icon -->
  <g transform="translate(30,40)">
    <circle cx="20" cy="20" r="20" fill="#4CAF50" fill-opacity="0.1"/>
    <path d="M20 10C21.6569 10 23 8.65685 23 7C23 5.34315 21.6569 4 20 4C18.3431 4 17 5.34315 17 7C17 8.65685 18.3431 10 20 10Z" 
          fill="#4CAF50"/>
    <path d="M15 25L20 15L25 25M20 15V35" stroke="#4CAF50" stroke-width="2" stroke-linecap="round"/>
  </g>
  
  <!-- Running Icon -->
  <g transform="translate(90,40)">
    <circle cx="20" cy="20" r="20" fill="#4CAF50" fill-opacity="0.1"/>
    <path d="M20 10C21.6569 10 23 8.65685 23 7C23 5.34315 21.6569 4 20 4C18.3431 4 17 5.34315 17 7C17 8.65685 18.3431 10 20 10Z" 
          fill="#4CAF50"/>
    <path d="M15 20L20 15L28 25M20 15L15 35" stroke="#4CAF50" stroke-width="2" stroke-linecap="round"/>
  </g>
  
  <!-- Cycling Icon -->
  <g transform="translate(150,40)">
    <circle cx="20" cy="20" r="20" fill="#4CAF50" fill-opacity="0.1"/>
    <circle cx="15" cy="25" r="8" stroke="#4CAF50" stroke-width="2"/>
    <circle cx="25" cy="25" r="8" stroke="#4CAF50" stroke-width="2"/>
    <path d="M20 15L25 25M15 15H25" stroke="#4CAF50" stroke-width="2" stroke-linecap="round"/>
  </g>
  
  <!-- Labels -->
  <text x="30" y="100" fill="#2C3E50" font-family="Inter" font-size="12">Walking</text>
  <text x="90" y="100" fill="#2C3E50" font-family="Inter" font-size="12">Running</text>
  <text x="150" y="100" fill="#2C3E50" font-family="Inter" font-size="12">Cycling</text>
</svg> 