<svg width="200" height="160" viewBox="0 0 200 160" fill="none" xmlns="http://www.w3.org/2000/svg">
  <!-- Background -->
  <rect width="200" height="160" rx="8" fill="#F5F7FA"/>
  
  <!-- Regular Mask -->
  <g transform="translate(20,20)">
    <path d="M60 40C60 30 50 20 30 20C10 20 0 30 0 40C0 50 10 60 30 60C50 60 60 50 60 40Z" 
          fill="#4CAF50" fill-opacity="0.2" stroke="#4CAF50" stroke-width="2"/>
    <path d="M15 40C15 40 25 35 30 35C35 35 45 40 45 40" 
          stroke="#4CAF50" stroke-width="2" stroke-linecap="round"/>
  </g>
  
  <!-- N95 Mask -->
  <g transform="translate(120,20)">
    <path d="M60 40C60 30 50 20 30 20C10 20 0 30 0 40C0 50 10 60 30 60C50 60 60 50 60 40Z" 
          fill="#6C757D" fill-opacity="0.2" stroke="#6C757D" stroke-width="2"/>
    <rect x="20" y="35" width="20" height="10" rx="2" fill="#6C757D"/>
  </g>
  
  <!-- Labels -->
  <text x="40" y="100" fill="#2C3E50" font-family="Inter" font-size="12">Regular Mask</text>
  <text x="140" y="100" fill="#2C3E50" font-family="Inter" font-size="12">N95 Mask</text>
</svg> 